<?xml version="1.0" standalone="no"?>
<!DOCTYPE svg PUBLIC "-//W3C//DTD SVG 20010904//EN"
 "http://www.w3.org/TR/2001/REC-SVG-20010904/DTD/svg10.dtd">
<svg version="1.0" xmlns="http://www.w3.org/2000/svg"
 width="116.000000pt" height="98.000000pt" viewBox="0 0 116.000000 98.000000"
 preserveAspectRatio="xMidYMid meet">

<g transform="translate(0.000000,98.000000) scale(0.100000,-0.100000)"
fill="#FFFFFF" stroke="none">
<path d="M516 837 c-23 -23 -54 -68 -71 -100 -16 -31 -34 -57 -38 -57 -5 0
-30 7 -56 16 -26 8 -68 14 -92 12 l-44 -3 -9 -54 c-8 -49 -2 -116 20 -188 5
-19 2 -23 -17 -23 -41 0 -98 -20 -126 -44 -25 -22 -26 -25 -14 -54 18 -44 88
-106 143 -127 35 -13 65 -16 120 -13 40 3 80 8 88 12 11 5 23 -7 44 -42 36
-63 84 -96 125 -87 32 7 80 55 107 106 13 25 20 30 37 24 12 -4 56 -10 98 -12
94 -6 159 18 218 83 50 53 61 89 35 109 -25 19 -102 45 -132 45 -21 0 -23 4
-18 23 22 72 28 139 20 188 l-9 54 -44 3 c-24 2 -66 -4 -92 -12 -26 -9 -51
-16 -56 -16 -4 0 -21 26 -38 57 -38 74 -104 143 -135 143 -15 0 -39 -16 -64
-43z m108 -39 c13 -18 38 -57 56 -87 26 -45 29 -56 18 -67 -11 -11 -21 -3 -58
44 -25 31 -52 57 -60 57 -8 0 -35 -26 -60 -57 -33 -41 -48 -54 -57 -46 -24 20
80 188 117 188 10 0 30 -15 44 -32z m0 -161 c93 -125 115 -232 63 -301 -31
-40 -74 -66 -110 -66 -38 0 -90 41 -115 90 -27 53 -24 97 12 175 22 48 95 155
106 155 3 0 22 -24 44 -53z m-235 -5 c56 -28 70 -44 53 -65 -23 -29 -44 -121
-39 -168 3 -27 2 -49 -2 -49 -15 0 -89 59 -108 87 -31 44 -43 90 -43 166 l0
70 43 -7 c23 -4 66 -19 96 -34z m524 2 c10 -59 -11 -147 -46 -197 -19 -28 -92
-87 -108 -87 -4 0 -5 24 -3 53 5 48 -4 90 -41 178 -7 19 44 54 110 75 69 22
82 19 88 -22z m-627 -255 c31 -34 71 -59 127 -79 l52 -19 -40 -17 c-66 -28
-143 -30 -203 -4 -48 21 -112 78 -112 100 0 6 1 10 3 10 1 0 20 7 42 15 59 21
108 19 131 -6z m737 0 c34 -15 34 -20 0 -60 -36 -42 -116 -79 -174 -79 -46 0
-139 26 -139 39 0 4 22 15 50 25 27 10 69 36 92 57 40 37 46 39 93 35 28 -2
62 -10 78 -17z m-486 -145 c40 -16 46 -16 85 -1 23 9 44 15 46 12 8 -7 -47
-93 -70 -109 -27 -19 -49 -8 -88 46 -29 39 -38 68 -23 68 4 0 27 -7 50 -16z"/>
</g>
</svg>
