<svg id="visual" viewBox="0 0 900 100" width="900" height="100" xmlns="http://www.w3.org/2000/svg" xmlns:xlink="http://www.w3.org/1999/xlink" version="1.1">
<rect x="0" y="0" width="900" height="100" fill="#6db9b5" fill-opacity="0"></rect>
<path d="M0 61L16.7 62.3C33.3 63.7 66.7 66.3 100 67C133.3 67.7 166.7 66.3 200 64C233.3 61.7 266.7 58.3 300 51.8C333.3 45.3 366.7 35.7 400 30.7C433.3 25.7 466.7 25.3 500 29.8C533.3 34.3 566.7 43.7 600 43.8C633.3 44 666.7 35 700 31.2C733.3 27.3 766.7 28.7 800 29.7C833.3 30.7 866.7 31.3 883.3 31.7L900 32L900 101L883.3 101C866.7 101 833.3 101 800 101C766.7 101 733.3 101 700 101C666.7 101 633.3 101 600 101C566.7 101 533.3 101 500 101C466.7 101 433.3 101 400 101C366.7 101 333.3 101 300 101C266.7 101 233.3 101 200 101C166.7 101 133.3 101 100 101C66.7 101 33.3 101 16.7 101L0 101Z" fill="#000" fill-opacity="0.1" stroke-linecap="round" stroke-linejoin="miter"></path>
</svg>